<?xml version="1.0" encoding="utf-8"?>
<!-- Generator: Adobe Illustrator 19.2.1, SVG Export Plug-In . SVG Version: 6.00 Build 0)  -->
<svg version="1.1" id="Layer_1" xmlns="http://www.w3.org/2000/svg" xmlns:xlink="http://www.w3.org/1999/xlink" x="0px" y="0px"
	 viewBox="0 0 37 34" style="enable-background:new 0 0 37 34;" xml:space="preserve">
<style type="text/css">
	.st0{fill:#9B00C1;}
</style>
<title>Discussion Copy</title>
<desc>Created with Sketch.</desc>
<g id="Home">
	<g id="Mood-Board" transform="translate(-646.000000, -217.000000)">
		<path id="Discussion-Copy" class="st0" d="M664.1,217h16c1.5,0,2.1,0.5,2.1,2v25.3c0,1.3-0.6,1.9-1.9,1.9h-19.6
			c-0.5,0-0.9,0.2-1.2,0.5c-1.2,1.3-2.5,2.5-3.7,3.7c-0.6,0.6-1.2,0.6-1.9,0.4c-0.6-0.2-0.8-0.7-0.8-1.5c0-0.8,0-1.6,0-2.4
			c0-0.8,0-0.8-0.8-0.8h-4.3c-1.3,0-1.9-0.6-1.9-1.9V219c0-1.5,0.6-2,2-2H664.1L664.1,217z M670.7,232.1c0.1-0.8-0.2-1.5-0.6-2.2
			c-0.7-0.9-1.9-1.2-2.9-0.8c-1,0.5-1.6,1.6-1.4,2.7c0.2,1.1,0.9,1.6,2.2,1.6c0.3,0,0.4,0.1,0.3,0.4c-0.3,0.8-0.8,1.6-1.6,2.1
			c-0.9,0.7-0.9,0.7,0.1,1.4c0.1,0.1,0.2,0.1,0.3,0.2c0.2,0.2,0.5,0.2,0.8,0C669.6,236.1,670.7,234.4,670.7,232.1L670.7,232.1z
			 M676.8,232.1c0-0.3,0-0.5,0-0.8c-0.2-1.6-1.3-2.5-2.9-2.3c-1.1,0.1-2.1,1.2-2.1,2.4c0,1.1,0.9,2.1,2,2.1c0.7,0,0.7,0.1,0.4,0.7
			c0,0.1-0.1,0.2-0.2,0.3c-0.4,0.7-1,1.2-1.6,1.6c-0.5,0.3-0.5,0.5,0,0.8c0.3,0.2,0.5,0.3,0.8,0.5c0.2,0.2,0.5,0.1,0.6,0
			C675.7,236.1,676.8,234.4,676.8,232.1L676.8,232.1z M654,234.2c1.2,0,2.2-0.9,2.3-2.2c0-1.4-0.7-2.1-2.1-2.2
			c-0.4,0-0.4-0.2-0.3-0.5c0.2-0.7,0.7-1.4,1.3-1.9c1-0.8,1-0.8-0.1-1.6c-0.4-0.3-0.7-0.2-1,0.1c-1.7,1.3-2.6,3-2.7,5.1
			C651.3,232.9,652.4,234.2,654,234.2L654,234.2z M660.1,234.2c0.7,0,1.4-0.3,1.8-0.8c0.6-0.6,0.8-1.6,0.5-2.4
			c-0.3-0.7-1-1.2-1.8-1.2c-0.8,0-0.8-0.1-0.5-0.9c0.1-0.1,0.1-0.2,0.2-0.4c0.4-0.6,1-1.1,1.6-1.5c0.4-0.3,0.4-0.5,0-0.8
			c-0.2-0.2-0.5-0.3-0.7-0.4c-0.3-0.2-0.5-0.2-0.8,0c-2,1.5-3,3.4-2.8,6C657.8,233.2,658.8,234.2,660.1,234.2L660.1,234.2z"/>
	</g>
</g>
</svg>
