<?xml version="1.0" encoding="UTF-8" standalone="no"?>
<svg width="33px" height="33px" viewBox="0 0 33 33" version="1.1" xmlns="http://www.w3.org/2000/svg" xmlns:xlink="http://www.w3.org/1999/xlink">
    <!-- Generator: Sketch 40.1 (33804) - http://www.bohemiancoding.com/sketch -->
    <title>Facebook Copy</title>
    <desc>Created with Sketch.</desc>
    <defs></defs>
    <g id="Home" stroke="none" stroke-width="1" fill="none" fill-rule="evenodd">
        <g id="Mood-Board" transform="translate(-773.000000, -217.000000)" fill="#004DA8">
            <path d="M805.6,221.894217 L805.6,244.703674 C805.576805,244.785912 805.549392,244.866041 805.532523,244.950388 C805.025037,247.255865 803.641048,248.749504 801.380556,249.431307 C801.159146,249.498784 800.929301,249.543066 800.703674,249.6 L794.402975,249.6 C794.402975,249.50511 794.37978,249.412329 794.37978,249.317439 L794.37978,237.626986 L794.37978,237.289599 L794.719276,237.289599 L799.510168,237.289599 C799.740013,237.289599 799.822251,237.238991 799.820142,236.990168 C799.80749,235.377038 799.820142,233.761798 799.820142,232.140233 C799.820142,232.047451 799.820142,231.95467 799.80749,231.830259 L794.402975,231.830259 C794.402975,230.986792 794.365019,230.181281 794.413519,229.377878 C794.462018,228.610323 794.947012,228.218111 795.706132,228.218111 L799.455343,228.218111 C799.564994,228.218111 799.66621,228.207568 799.788512,228.199133 L799.788512,222.790401 L795.529004,222.790401 C794.375626,222.778539 793.248481,223.134557 792.311177,223.806779 C790.719603,224.909601 789.668076,226.633553 789.415977,228.553389 C789.26837,229.531811 789.33163,230.541863 789.3,231.539263 L789.3,231.863997 L785.329379,231.863997 C785.329379,231.950453 785.310401,232.009495 785.310401,232.074864 L785.310401,237.047102 C785.310401,237.270621 785.403182,237.300142 785.588745,237.298034 L788.973157,237.298034 L789.3,237.298034 L789.3,249.6 L777.894217,249.6 C777.820414,249.578913 777.748719,249.553609 777.683351,249.53674 C775.359599,249.036283 773.854713,247.650888 773.168693,245.380556 C773.101216,245.159146 773.054825,244.929301 773,244.705783 L773,221.894217 C773.03163,221.778241 773.065369,221.662264 773.090673,221.546287 C773.609405,219.319534 774.967387,217.872988 777.143532,217.18978 C777.390246,217.111759 777.639069,217.06326 777.894217,217 L800.703674,217 C800.769043,217.018978 800.832303,217.044282 800.89978,217.059043 C803.246024,217.553877 804.757939,218.948409 805.435524,221.242639 C805.500893,221.457723 805.545175,221.677025 805.6,221.894217 L805.6,221.894217 Z" id="Facebook-Copy"></path>
        </g>
    </g>
</svg>