<?xml version="1.0" encoding="UTF-8" standalone="no"?>
<svg width="38px" height="33px" viewBox="0 0 38 33" version="1.1" xmlns="http://www.w3.org/2000/svg" xmlns:xlink="http://www.w3.org/1999/xlink">
    <!-- Generator: Sketch 40.1 (33804) - http://www.bohemiancoding.com/sketch -->
    <title>Shitpost Copy</title>
    <desc>Created with Sketch.</desc>
    <defs></defs>
    <g id="Home" stroke="none" stroke-width="1" fill="none" fill-rule="evenodd">
        <g id="Mood-Board" transform="translate(-767.000000, -166.000000)">
            <g id="Shitpost-Copy" transform="translate(767.000000, 166.000000)">
                <path d="M9.61032258,10.8220588 C9.63483871,10.2154412 9.63483871,9.58455882 9.73290323,8.97794118 C10.0516129,6.76985294 11.3264516,5.21691176 13.2632258,4.22205882 C15.1509677,3.25147059 17.0632258,2.35367647 18.9509677,1.38308824 C19.9316129,0.873529412 20.9367742,0.0727941176 20.9367742,0.0727941176 C22.3341935,1.11617647 22.8735484,2.62058824 22.8735484,3.46985294 C22.8735484,3.59117647 23.0696774,3.80955882 23.1922581,3.83382353 C25.84,4.27058824 28.4387097,6.72132353 28.2670968,10.3610294 L28.2670968,10.8705882 C30.3019355,11.4286765 31.8219355,12.6176471 32.6064516,14.5588235 C33.3664516,16.4757353 33.243871,18.3683824 32.3612903,20.2125 C32.9987097,20.4066176 33.636129,20.5522059 34.2245161,20.8191176 C37.0193548,22.0566176 38.4167742,25.0169118 37.7548387,28.0985294 C37.1174194,30.9860294 34.6412903,32.9514706 31.5767742,32.9757353 L9.92903226,32.9757353 C8.65419355,32.9757353 7.37935484,33 6.10451613,32.9757353 C2.89290323,32.9029412 0.367741935,30.525 0.0735483871,27.3463235 C-0.24516129,24.1433824 1.54451613,21.4014706 4.53548387,20.5279412 C4.82967742,20.3580882 5.17290323,20.2852941 5.56516129,20.2125 C3.55483871,15.8448529 5.85935484,11.7441176 9.61032258,10.8220588 Z M14.1212903,22.7602941 C16.2787097,22.7602941 18.0193548,21.0860294 18.0193548,18.9507353 C18.0193548,16.8154412 16.3032258,15.0926471 14.1458065,15.0926471 C12.0129032,15.0926471 10.2477419,16.7911765 10.2477419,18.9264706 C10.2477419,21.0375 11.963871,22.7602941 14.1212903,22.7602941 L14.1212903,22.7602941 Z M19.2451613,18.9022059 C19.2451613,21.0617647 20.9367742,22.7602941 23.0941935,22.7602941 C25.2516129,22.7602941 26.9922581,21.0860294 26.9922581,18.9507353 C26.9922581,16.8397059 25.2516129,15.0926471 23.1187097,15.0926471 C20.9858065,15.0683824 19.2451613,16.7669118 19.2451613,18.9022059 L19.2451613,18.9022059 Z" id="Shape" fill="#813421"></path>
                <path d="M14.1212903,17.3735294 C14.8322581,17.3735294 15.3716129,17.9073529 15.396129,18.6110294 C15.396129,19.3389706 14.8567742,19.8727941 14.1212903,19.8727941 C13.3858065,19.8727941 12.8709677,19.3389706 12.8709677,18.5867647 C12.8709677,17.8830882 13.4103226,17.3735294 14.1212903,17.3735294 L14.1212903,17.3735294 Z" id="Shape" fill="#000000"></path>
                <path d="M21.843871,18.8051471 C21.8683871,18.1014706 22.4077419,17.5919118 23.1432258,17.6161765 C23.8787097,17.6404412 24.4180645,18.1985294 24.3935484,18.9264706 C24.3690323,19.6301471 23.8296774,20.1397059 23.0941935,20.1154412 C22.3341935,20.0911765 21.8193548,19.5573529 21.843871,18.8051471 L21.843871,18.8051471 Z" id="Shape" fill="#000000"></path>
            </g>
        </g>
    </g>
</svg>