<?xml version="1.0" encoding="utf-8"?>
<!-- Generator: Adobe Illustrator 19.2.1, SVG Export Plug-In . SVG Version: 6.00 Build 0)  -->
<svg version="1.1" id="Layer_1" xmlns="http://www.w3.org/2000/svg" xmlns:xlink="http://www.w3.org/1999/xlink" x="0px" y="0px"
	 viewBox="0 0 31 22" style="enable-background:new 0 0 31 22;" xml:space="preserve">
<style type="text/css">
	.st0{fill:#D10000;}
</style>
<title>Youtube Copy</title>
<desc>Created with Sketch.</desc>
<g id="Home">
	<g id="Mood-Board" transform="translate(-716.000000, -222.000000)">
		<path id="Youtube-Copy" class="st0" d="M731.4,222.1c1.2,0,2.4,0,3.5,0c1.5,0,2.9,0.1,4.4,0.1c1,0,2,0.1,3.1,0.2
			c0.8,0.1,1.6,0.2,2.2,0.7c0.8,0.5,1.2,1.2,1.5,2.1c0.3,0.8,0.4,1.5,0.5,2.3c0.1,1.1,0.2,2.2,0.2,3.3c0,2,0.1,3.9-0.1,5.9
			c-0.1,0.8-0.1,1.6-0.2,2.4c-0.1,0.8-0.3,1.6-0.7,2.3c-0.6,1.1-1.5,1.7-2.7,2c-0.6,0.1-1.2,0.2-1.8,0.2c-1.4,0.1-2.8,0.1-4.2,0.2
			c-0.7,0-1.3,0-2,0c-1.3,0-2.6,0-4,0c-1.3,0-2.7,0-4-0.1c-1.1,0-2.2,0-3.3-0.1c-0.9,0-1.9-0.1-2.8-0.2c-0.6,0-1.2-0.1-1.7-0.3
			c-1.3-0.3-2.2-1.2-2.6-2.4c-0.3-0.8-0.4-1.6-0.5-2.4c-0.1-1.1-0.2-2.2-0.2-3.2c0-2-0.1-3.9,0.1-5.9c0.1-0.8,0.1-1.6,0.2-2.4
			c0.1-0.8,0.3-1.6,0.7-2.3c0.6-1.1,1.5-1.7,2.6-1.9c0.5-0.1,1.1-0.2,1.6-0.2c1.4-0.1,2.8-0.1,4.2-0.2c0.7,0,1.3,0,2,0
			C728.8,222,730.1,222,731.4,222.1C731.4,222,731.4,222.1,731.4,222.1L731.4,222.1z M736.5,232.6c-2.8-1.5-5.5-2.9-8.3-4.3v8.7
			C731,235.4,733.8,234,736.5,232.6L736.5,232.6z"/>
	</g>
</g>
</svg>
